:SAMPLES-PER-SECOND 30
:FULLY-SPECIFIED
:DEGREES
563
root  -1.15569 5.86545 15.5875 -48.1894 -8.21228 2.13296
RightUpLeg  -87.1291 -4.37057 6.72208
RightLeg  91.5462 16.5396 -8.79054
RightFoot  31.834 3.1227 -7.83721
RightToes  5.82077e-011 -3.18055e-015 -2.98177e-016
Spine  32.5105 1.44253 5.21169
Spine1  21.7216 -0.0281555 1.70867
HEad  -14.3452 14.8918 5.296
LeftShoulder1  -3.88251e-019 9.70628e-020 -3.87848e-018
LeftArm  5.38456 -25.6165 -38.9074
LeftForeArm  18.9256 -21.561 3.20797
LeftHand  -8.56272 -15.0572 47.0072
RightShoulder  -0.226518 2.75832 -5.2525
RightArm  7.33171 22.9198 41.2477
RightForeArm  15.2627 32.4467 -18.2986
RightHand  -7.78328 11.4556 -50.0138
LeftUpLeg  -86.1423 8.3791 -0.60681
LeftLeg  87.0527 -13.8709 18.3876
LeftFoot  31.4262 -2.42573 6.14494
LeftToes  5.91571e-011 -3.44359e-011 -3.93244e-011
564
root  -1.15271 5.87811 15.5968 -48.1399 -8.24954 2.03772
RightUpLeg  -87.1356 -4.53415 6.89359
RightLeg  91.5724 16.5413 -8.77068
RightFoot  31.7614 3.13729 -7.88559
RightToes  5.82077e-011 -3.18055e-015 -2.98177e-016
Spine  32.0959 1.36084 5.12061
Spine1  22.386 -0.166898 1.7256
HEad  -13.3597 14.5958 5.18653
LeftShoulder1  -3.88251e-019 9.70628e-020 -3.87848e-018
LeftArm  0.682001 -19.1465 -35.329
LeftForeArm  17.0936 -19.8705 2.89767
LeftHand  -7.92664 -14.3637 45.2921
RightShoulder  0.00422002 3.23727 -3.31862
RightArm  4.35099 17.6147 36.8149
RightForeArm  14.3811 30.1221 -16.8598
RightHand  -7.17513 10.9662 -47.7553
LeftUpLeg  -86.1772 8.26785 -0.466205
LeftLeg  87.0963 -13.8833 18.3688
LeftFoot  31.4826 -2.42873 6.14408
LeftToes  5.91571e-011 -3.44359e-011 -3.93244e-011
565
root  -1.15775 5.90056 15.6167 -48.0877 -8.30663 1.90141
RightUpLeg  -87.1097 -4.65196 7.07216
RightLeg  91.6351 16.5475 -8.74709
RightFoot  31.6625 3.14148 -7.91393
RightToes  5.82077e-011 -3.18055e-015 -2.98177e-016
Spine  32.0088 1.31715 5.08153
Spine1  22.6508 -0.187751 1.7293
HEad  -12.4036 14.0741 5.30068
LeftShoulder1  -3.88251e-019 9.70628e-020 -3.87848e-018
LeftArm  -2.60514 -11.677 -32.0152
LeftForeArm  13.3657 -18.0779 2.53006
LeftHand  -7.34975 -13.6057 43.8662
RightShoulder  0.311796 3.7642 -0.876278
RightArm  2.07407 11.395 31.7283
RightForeArm  12.5767 28.0739 -15.6165
RightHand  -6.26894 9.75405 -45.3427
LeftUpLeg  -86.2117 8.18744 -0.294928
LeftLeg  87.1678 -13.903 18.324
LeftFoot  31.5054 -2.40331 6.0789
LeftToes  5.91571e-011 -3.44359e-011 -3.93244e-011
566
root  -1.16611 5.92406 15.6453 -48.0069 -8.39947 1.83915
RightUpLeg  -87.1489 -4.65342 7.21635
RightLeg  91.7318 16.5594 -8.7339
RightFoot  31.5471 3.12371 -7.89233
RightToes  5.82077e-011 -3.18055e-015 -2.98177e-016
Spine  32.1003 1.2729 5.04481
Spine1  22.792 -0.133161 1.54009
HEad  -11.4048 13.6766 5.72506
LeftShoulder1  -3.88251e-019 9.70628e-020 -3.87848e-018
LeftArm  -4.33954 -3.36025 -28.4383
LeftForeArm  8.52833 -16.3121 2.12469
LeftHand  -6.49011 -12.3625 41.7142
RightShoulder  0.736523 4.372 2.29218
RightArm  0.51286 4.88442 25.9738
RightForeArm  11.2366 25.6492 -14.2458
RightHand  -5.42417 8.34824 -43.4267
LeftUpLeg  -86.2957 8.23727 -0.177547
LeftLeg  87.2747 -13.9342 18.2926
LeftFoot  31.4715 -2.39352 6.05995
LeftToes  5.91571e-011 -3.44359e-011 -3.93244e-011
567
root  -1.1695 5.94352 15.6761 -47.7647 -8.52195 1.89775
RightUpLeg  -87.4161 -4.54148 7.32601
RightLeg  91.8044 16.5693 -8.73129
RightFoot  31.472 3.10531 -7.86164
RightToes  5.82077e-011 -3.18055e-015 -2.98177e-016
Spine  32.1087 1.2835 4.97318
Spine1  23.0342 -0.0560093 1.27844
HEad  -10.4084 13.3592 6.20475
LeftShoulder1  -3.88251e-019 9.70628e-020 -3.87848e-018
LeftArm  -5.08826 5.81666 -24.7187
LeftForeArm  2.80658 -14.5951 1.90702
LeftHand  -5.44444 -10.7089 38.9697
RightShoulder  1.26518 5.0752 5.89781
RightArm  -0.944021 -1.79207 19.7412
RightForeArm  10.8619 22.5317 -12.6309
RightHand  -4.70514 7.19633 -41.289
LeftUpLeg  -86.5764 8.43658 -0.175204
LeftLeg  87.4157 -13.9756 18.26
LeftFoot  31.3387 -2.38852 6.06673
LeftToes  5.91571e-011 -3.44359e-011 -3.93244e-011
568
root  -1.16438 5.96194 15.7061 -47.2846 -8.6222 1.98614
RightUpLeg  -87.9519 -4.43514 7.42449
RightLeg  91.8452 16.5708 -8.68985
RightFoot  31.4372 3.11191 -7.88408
RightToes  5.82077e-011 -3.18055e-015 -2.98177e-016
Spine  31.9126 1.36305 4.95491
Spine1  23.4011 0.0576442 1.06241
HEad  -9.66871 12.6769 6.37249
LeftShoulder1  -3.88251e-019 9.70628e-020 -3.87848e-018
LeftArm  -5.3689 15.269 -21.5806
LeftForeArm  -4.41236 -11.6408 1.73222
LeftHand  -4.7386 -9.30887 37.3923
RightShoulder  1.79533 5.71458 9.23266
RightArm  -2.15746 -8.79451 13.5354
RightForeArm  10.6225 18.206 -10.7776
RightHand  -3.98816 6.06735 -38.653
LeftUpLeg  -87.1276 8.65962 -0.287325
LeftLeg  87.5455 -14.0141 18.2409
LeftFoot  31.1185 -2.34929 6.00203
LeftToes  5.91571e-011 -3.44359e-011 -3.93244e-011
569
root  -1.15601 5.98036 15.7355 -46.7475 -8.74109 2.03118
RightUpLeg  -88.5241 -4.36988 7.57698
RightLeg  91.8829 16.5678 -8.61014
RightFoot  31.4071 3.12524 -7.922
RightToes  5.82077e-011 -3.18055e-015 -2.98177e-016
Spine  31.6767 1.41804 5.08278
Spine1  23.8531 0.232364 0.785346
HEad  -9.19647 11.699 6.15613
LeftShoulder1  -3.88251e-019 9.70628e-020 -3.87848e-018
LeftArm  -4.93135 24.4306 -19.0837
LeftForeArm  -13.4159 -6.48296 1.21914
LeftHand  -4.11213 -7.5871 36.9205
RightShoulder  2.23497 6.14228 11.916
RightArm  -1.46868 -16.1749 7.78143
RightForeArm  8.72674 12.3453 -8.97004
RightHand  -3.14906 4.37509 -35.9579
LeftUpLeg  -87.7695 8.87814 -0.399837
LeftLeg  87.6431 -14.0474 18.2908
LeftFoot  30.8843 -2.28229 5.86998
LeftToes  5.91571e-011 -3.44359e-011 -3.93244e-011
570
root  -1.1512 5.99699 15.7616 -46.3659 -8.97417 2.09032
RightUpLeg  -88.902 -4.22999 7.81121
RightLeg  91.8867 16.5653 -8.5808
RightFoot  31.4065 3.10407 -7.87074
RightToes  5.82077e-011 -3.18055e-015 -2.98177e-016
Spine  31.6138 1.35142 5.17811
Spine1  24.3922 0.353296 0.351835
HEad  -8.58913 11.2729 5.79898
LeftShoulder1  -3.88251e-019 9.70628e-020 -3.87848e-018
LeftArm  -3.15654 33.7975 -16.1506
LeftForeArm  -23.1345 -1.30922 0.544875
LeftHand  -2.96501 -4.43011 35.5955
RightShoulder  2.63567 6.43313 14.3749
RightArm  0.749786 -23.8492 2.27026
RightForeArm  4.7027 6.96572 -7.261
RightHand  -1.99275 1.47195 -32.2766
LeftUpLeg  -88.2885 9.24342 -0.423847
LeftLeg  87.7723 -14.0905 18.3394
LeftFoot  30.6354 -2.20313 5.70804
LeftToes  5.91571e-011 -3.44359e-011 -3.93244e-011
571
root  -1.15191 6.01573 15.779 -46.0679 -9.2313 2.20159
RightUpLeg  -89.1812 -4.00994 8.01814
RightLeg  91.8252 16.563 -8.63924
RightFoot  31.438 3.04313 -7.71709
RightToes  5.82077e-011 -3.18055e-015 -2.98177e-016
Spine  31.6551 1.16937 4.90099
Spine1  25.0865 0.227788 -0.0920015
HEad  -7.67509 11.855 5.5056
LeftShoulder1  -3.88251e-019 9.70628e-020 -3.87848e-018
LeftArm  0.0634755 44.1716 -11.7312
LeftForeArm  -32.2616 0.0619701 0.578192
LeftHand  -1.63187 -0.560135 33.569
RightShoulder  3.13617 6.76777 17.3362
RightArm  3.50958 -31.4589 -3.67918
RightForeArm  -2.44085 4.89312 -6.37894
RightHand  -0.608199 -2.95465 -27.1222
LeftUpLeg  -88.7328 9.75651 -0.458478
LeftLeg  88.0022 -14.1497 18.1805
LeftFoot  30.2183 -2.07269 5.43705
LeftToes  5.91571e-011 -3.44359e-011 -3.93244e-011
572
root  -1.15805 6.03877 15.7866 -45.7443 -9.2754 2.23689
RightUpLeg  -89.5078 -3.93671 8.07224
RightLeg  91.793 16.5652 -8.70332
RightFoot  31.3165 2.96477 -7.54837
RightToes  5.82077e-011 -3.18055e-015 -2.98177e-016
Spine  31.6034 0.971675 4.24098
Spine1  26.0426 -0.143182 -0.284628
HEad  -6.87123 12.6699 5.16277
LeftShoulder1  -3.88251e-019 9.70628e-020 -3.87848e-018
LeftArm  4.47725 55.0457 -5.85754
LeftForeArm  -40.6694 -0.128983 1.21084
LeftHand  -0.648631 2.68566 32.6624
RightShoulder  3.75609 7.18329 20.787
RightArm  7.54111 -38.4088 -10.5418
RightForeArm  -13.522 6.26319 -6.50829
RightHand  0.543536 -8.02729 -23.6231
LeftUpLeg  -89.1814 10.1167 -0.621904
LeftLeg  88.3042 -14.2093 17.7563
LeftFoot  29.4836 -1.8642 4.99977
LeftToes  5.91571e-011 -3.44359e-011 -3.93244e-011
573
root  -1.17007 6.05731 15.7877 -45.5454 -9.08116 2.09497
RightUpLeg  -89.7536 -4.13132 8.0186
RightLeg  91.9201 16.5801 -8.67976
RightFoot  30.8499 2.86763 -7.39242
RightToes  5.82077e-011 -3.18055e-015 -2.98177e-016
Spine  31.4719 0.897845 3.57408
Spine1  27.1801 -0.503672 -0.0852132
HEad  -6.44255 12.7019 4.48088
LeftShoulder1  -3.88251e-019 9.70628e-020 -3.87848e-018
LeftArm  10.3123 64.7141 0.944312
LeftForeArm  -46.9896 -0.15334 1.82346
LeftHand  0.00635266 4.97212 32.1536
RightShoulder  4.28919 7.50257 23.6546
RightArm  13.2753 -44.4707 -18.128
RightForeArm  -24.2036 8.6388 -6.61171
RightHand  1.23936 -11.3216 -24.0847
LeftUpLeg  -89.4789 10.1427 -0.833843
LeftLeg  88.5805 -14.2541 17.2864
LeftFoot  28.5223 -1.65645 4.57337
LeftToes  5.91571e-011 -3.44359e-011 -3.93244e-011
574
root  -1.18013 6.06874 15.7877 -45.4657 -8.9066 1.96555
RightUpLeg  -89.9222 -4.34144 7.97219
RightLeg  92.1703 16.5947 -8.49814
RightFoot  30.1967 2.74784 -7.20847
RightToes  5.82077e-011 -3.18055e-015 -2.98177e-016
Spine  31.2965 1.04019 3.10203
Spine1  28.0534 -0.646127 0.396297
HEad  -5.86545 12.0317 3.46468
LeftShoulder1  -3.88251e-019 9.70628e-020 -3.87848e-018
LeftArm  18.6763 71.9013 9.24953
LeftForeArm  -48.1997 -0.156706 1.96435
LeftHand  0.380035 6.40248 29.8279
RightShoulder  4.49492 7.54479 24.8867
RightArm  20.3106 -49.754 -25.7726
RightForeArm  -28.6701 9.80442 -6.25331
RightHand  1.4632 -11.9869 -25.4338
LeftUpLeg  -89.6353 10.0903 -1.0193
LeftLeg  88.7568 -14.2829 17.0122
LeftFoot  27.6634 -1.55672 4.40369
LeftToes  5.91571e-011 -3.44359e-011 -3.93244e-011
575
root  -1.17944 6.08091 15.7758 -45.3955 -9.09208 1.9252
RightUpLeg  -89.9553 -4.24275 8.17461
RightLeg  92.2225 16.5823 -8.31909
RightFoot  29.7647 2.67899 -7.1094
RightToes  5.82077e-011 -3.18055e-015 -2.98177e-016
Spine  31.2554 1.29709 2.86446
Spine1  28.2019 -0.610719 0.920323
HEad  -4.59401 11.5578 2.63412
LeftShoulder1  -3.88251e-019 9.70628e-020 -3.87848e-018
LeftArm  30.7471 76.4311 20.7344
LeftForeArm  -44.3499 -0.0777402 1.89256
LeftHand  0.466447 6.95711 26.5004
RightShoulder  4.40601 7.37484 24.6772
RightArm  26.8362 -53.9234 -32.5817
RightForeArm  -27.4518 9.58848 -6.10797
RightHand  1.42384 -11.9277 -25.003
LeftUpLeg  -89.7397 10.3038 -0.966101
LeftLeg  88.8436 -14.296 16.8691
LeftFoot  27.2022 -1.56933 4.48845
LeftToes  5.91571e-011 -3.44359e-011 -3.93244e-011
576
root  -1.16436 6.09791 15.7503 -45.2388 -9.52921 1.86099
RightUpLeg  -89.8969 -3.95577 8.57669
RightLeg  91.9826 16.5454 -8.26791
RightFoot  29.7577 2.69601 -7.15346
RightToes  5.82077e-011 -3.18055e-015 -2.98177e-016
Spine  31.4006 1.42965 2.84929
Spine1  27.7796 -0.554996 1.15041
HEad  -3.10087 11.6488 2.50422
LeftShoulder1  -3.88251e-019 9.70628e-020 -3.87848e-018
LeftArm  43.8814 78.6036 33.7936
LeftForeArm  -39.6124 0.0779628 2.14808
LeftHand  0.426289 6.91027 25.0434
RightShoulder  4.26399 7.21368 24.0992
RightArm  30.8059 -56.4413 -37.2425
RightForeArm  -26.19 9.1225 -6.63161
RightHand  1.47645 -12.4145 -24.1176
LeftUpLeg  -89.8655 10.6338 -0.664359
LeftLeg  88.8388 -14.2859 16.762
LeftFoot  27.1793 -1.61159 4.60611
LeftToes  5.91571e-011 -3.44359e-011 -3.93244e-011
577
root  -1.14112 6.1071 15.7289 -45.122 -9.71342 1.70648
RightUpLeg  -89.823 -3.93073 8.78586
RightLeg  91.7477 16.521 -8.32969
RightFoot  29.952 2.72502 -7.19336
RightToes  5.82077e-011 -3.18055e-015 -2.98177e-016
Spine  31.6135 1.31823 2.97212
Spine1  27.472 -0.572751 0.953762
HEad  -2.42961 11.806 2.8243
LeftShoulder1  -3.88251e-019 9.70628e-020 -3.87848e-018
LeftArm  49.4092 78.98 40.1761
LeftForeArm  -36.7866 0.236845 2.66771
LeftHand  0.399629 6.74452 25.659
RightShoulder  4.19534 7.14005 23.8049
RightArm  31.6372 -57.2524 -38.6295
RightForeArm  -27.5182 9.1622 -7.18787
RightHand  1.67271 -13.0752 -24.9054
LeftUpLeg  -89.9017 10.5705 -0.415102
LeftLeg  88.7142 -14.2515 16.7702
LeftFoot  27.444 -1.63824 4.6478
LeftToes  5.91571e-011 -3.44359e-011 -3.93244e-011
